<?xml version="1.0" encoding="UTF-8" standalone="no"?>
<!-- Created with Inkscape (http://www.inkscape.org/) -->

<svg
   width="110mm"
   height="40mm"
   viewBox="0 0 110 40"
   version="1.1"
   id="svg1"
   inkscape:version="1.3.2 (091e20ef0f, 2023-11-25, custom)"
   sodipodi:docname="deda.svg"
   xmlns:inkscape="http://www.inkscape.org/namespaces/inkscape"
   xmlns:sodipodi="http://sodipodi.sourceforge.net/DTD/sodipodi-0.dtd"
   xmlns="http://www.w3.org/2000/svg"
   xmlns:svg="http://www.w3.org/2000/svg">
  <sodipodi:namedview
     id="namedview1"
     pagecolor="#ffffff"
     bordercolor="#000000"
     borderopacity="0.25"
     inkscape:showpageshadow="2"
     inkscape:pageopacity="0.0"
     inkscape:pagecheckerboard="0"
     inkscape:deskcolor="#d1d1d1"
     inkscape:document-units="mm"
     inkscape:zoom="2.0144265"
     inkscape:cx="109.21222"
     inkscape:cy="24.324541"
     inkscape:window-width="1920"
     inkscape:window-height="1050"
     inkscape:window-x="0"
     inkscape:window-y="30"
     inkscape:window-maximized="1"
     inkscape:current-layer="layer1" />
  <defs
     id="defs1" />
  <g
     inkscape:label="Layer 1"
     inkscape:groupmode="layer"
     id="layer1">
    <path
       style="font-size:40px;line-height:0;font-family:'BigBlueTermPlus Nerd Font';-inkscape-font-specification:'BigBlueTermPlus Nerd Font';letter-spacing:0px;fill:#ff0000;stroke:#000000;stroke-width:0.265"
       d="M 0.13249999,30.1325 V 26.799166 H 3.4658333 V 3.465833 H 0.13249999 V 0.13249969 H 16.799167 V 3.465833 H 20.1325 v 3.3333334 h 3.333333 V 23.465833 H 20.1325 v 3.333333 H 16.799167 V 30.1325 Z M 10.1325,26.799166 h 3.333333 v -3.333333 h 3.333334 V 6.7991664 H 13.465833 V 3.465833 H 10.1325 Z m 16.666641,0 V 13.465833 h 3.333334 V 10.1325 h 16.666666 v 3.333333 h 3.333334 V 20.1325 H 33.465808 v 6.666666 h 10 v -3.333333 h 6.666667 v 3.333333 H 46.799141 V 30.1325 H 30.132475 v -3.333334 z m 6.666667,-13.333333 v 3.333333 h 10 v -3.333333 z m 0,-6.6666666 V 3.465833 H 30.132475 V 0.13249969 h 6.666666 V 3.465833 h 3.333334 V 0.13249969 h 6.666666 V 3.465833 H 43.465808 V 6.7991664 Z M 53.465782,26.799166 v -10 h 3.333334 v -3.333333 h 3.333333 V 10.1325 h 6.666667 V 3.465833 H 63.465782 V 0.13249969 h 10 V 26.799166 h 3.333334 V 30.1325 H 70.132449 V 26.799166 H 66.799116 V 13.465833 h -3.333334 v 3.333333 h -3.333333 v 10 h 6.666667 V 30.1325 h -10 v -3.333334 z m 26.666642,0 V 20.1325 h 3.333333 v -3.333334 h 10 v -3.333333 h -10 V 10.1325 H 96.79909 v 3.333333 h 3.33333 v 13.333333 h 3.33334 V 30.1325 H 96.79909 V 26.799166 H 93.465757 V 20.1325 H 86.79909 v 6.666666 h 6.666667 V 30.1325 h -10 v -3.333334 z"
       id="text2"
       aria-label="Děda" />
  </g>
</svg>
