<?xml version="1.0" encoding="UTF-8" standalone="no"?>
<!-- Created with Inkscape (http://www.inkscape.org/) -->

<svg
   width="110mm"
   height="40mm"
   viewBox="0 0 110 40"
   version="1.1"
   id="svg1"
   inkscape:version="1.3.2 (091e20ef0f, 2023-11-25, custom)"
   sodipodi:docname="jiri.svg"
   xml:space="preserve"
   xmlns:inkscape="http://www.inkscape.org/namespaces/inkscape"
   xmlns:sodipodi="http://sodipodi.sourceforge.net/DTD/sodipodi-0.dtd"
   xmlns="http://www.w3.org/2000/svg"
   xmlns:svg="http://www.w3.org/2000/svg"><sodipodi:namedview
     id="namedview1"
     pagecolor="#ffffff"
     bordercolor="#000000"
     borderopacity="0.25"
     inkscape:showpageshadow="2"
     inkscape:pageopacity="0.0"
     inkscape:pagecheckerboard="0"
     inkscape:deskcolor="#d1d1d1"
     inkscape:document-units="mm"
     inkscape:zoom="1.6133856"
     inkscape:cx="213.21624"
     inkscape:cy="76.237201"
     inkscape:window-width="1920"
     inkscape:window-height="1050"
     inkscape:window-x="0"
     inkscape:window-y="30"
     inkscape:window-maximized="1"
     inkscape:current-layer="layer1" /><defs
     id="defs1" /><g
     inkscape:label="Layer 1"
     inkscape:groupmode="layer"
     id="layer1"><path
       style="font-size:25px;line-height:0;font-family:Z003;-inkscape-font-specification:Z003;letter-spacing:0px;fill:#ff0000;stroke:#000000;stroke-width:0.265"
       d="m 12.6075,2.7075008 c -0.5,-0.05 -0.725,-0.075 -1.1,-0.075 -0.475,0 -0.925,0.05 -1.325,0.15 -0.675,0.175 -1.875,1.025 -2.875,2.025 -1.225,1.25 -1.65,2.425 -2.625,7.0500002 -0.675,3.2 -1.325,4.125 -2.9,4.125 -0.175,0 -0.5,0 -0.775,-0.025 -0.35,0.35 -0.5,0.525 -0.875,1 1.15,-0.05 1.75,-0.075 2.45,-0.075 0.675,0 1.975,0.05 3.825,0.125 4.05,0.2 4.2,0.2 4.925,0.2 1.3,0 1.85,-0.275 2.3,-1.2 0.3,-0.575 1.075,-2.3 1.45,-3.25 l -0.275,-0.475 c -1.625,3.425 -1.9,3.575 -6.2,3.55 h -4.725 c 1.675,-1.575 1.775,-1.7 2.1,-2.425 0.375,-0.975 0.4,-1.075 1.275,-4.8250002 0.8,-3 0.8,-3.025 1.025,-3.425 0.425,-0.8 0.95,-1.1 1.875,-1.1 0.35,0 0.575,0 1.475,0.05 z m 9.449998,11.0500002 c -1.9,1.3 -2.775,1.825 -3.1,1.825 -0.275,0 -0.475,-0.35 -0.475,-0.825 0,-0.575 0.2,-1.575 0.625,-3.175 0.25,-0.95 0.5,-1.9000002 0.525,-2.0500002 0.225,-0.95 0.4,-1.575 0.45,-1.75 0.075,-0.275 0.125,-0.525 0.125,-0.675 0,-0.2 -0.125,-0.325 -0.3,-0.325 -0.25,0 -2.05,0.975 -3.875,2.1 l -0.175,0.675 c 1.075,-0.55 1.525,-0.725 1.825,-0.725 0.2,0 0.35,0.175 0.35,0.475 0,0.35 -0.225,1.3250002 -0.7,3.1000002 -0.625,2.35 -0.775,3.025 -0.775,3.75 0,0.7 0.3,1.225 0.7,1.225 0.375,0 0.8,-0.225 2.075,-1.05 1.95,-1.25 1.95,-1.25 2.575,-1.675 -0.225,0.85 -0.35,1.7 -0.35,2.15 0,0.35 0.175,0.575 0.45,0.575 0.5,0 2.85,-1.375 4.575,-2.675 l 0.175,-0.75 c -1.775,1.05 -2.6,1.5 -2.875,1.5 -0.175,0 -0.275,-0.175 -0.275,-0.6 0,-1.275 0.9,-4.9750002 2,-8.1750002 -0.325,0.175 -0.55,0.3 -0.65,0.35 -0.3,0.15 -0.6,0.3 -0.925,0.425 -0.075,0.05 -0.225,0.125 -0.5,0.275 -0.175,0.625 -0.575,2.3000002 -1.225,5.0250002 z m 5.674977,3.725 0.8,-0.675 c 0.7,0.275 1.225,0.375 1.7,0.375 0.65,0 0.8,-0.075 2.35,-1.05 1.125,-0.625 1.125,-0.625 1.275,-0.725 0.675,-0.425 1.15,-0.95 1.525,-1.625 0.8,-1.45 1.4,-3.625 1.4,-5.1000002 0,-1.15 -0.575,-1.9 -1.475,-1.9 -0.85,0 -1.525,0.375 -4.025,2.15 0.2,-0.875 0.2,-0.875 0.475,-2.125 0.5,-2.475 0.55,-2.625 1.05,-3.75 0.475,-1.075 0.95,-1.4 2.1,-1.4 h 1.025 l 1.025,-1.44999996 c -0.5,-0.05 -0.825,-0.075 -1.1,-0.075 -0.925,0 -1.375,0.25 -3.475,1.99999996 -1.7,1.375 -1.7,1.375 -2.575,5.25 -0.475,2.075 -0.925,4.0000002 -1.425,6.2000002 -0.45,1.975 -0.5,2.2 -0.9,3.8 z m 3.3,-7.5250002 c 1.425,-1.05 2.3,-1.5 2.875,-1.5 0.5,0 0.825,0.45 0.825,1.225 0,1.0000002 -0.3,2.5000002 -0.725,3.5750002 -0.675,1.675 -1.55,2.5 -2.65,2.5 -0.5,0 -0.975,-0.125 -1.65,-0.475 z m 13.750002,-3.175 c -1,0 -2.6,0.725 -4.075,1.825 -1.6,1.2 -2.725,3.8000002 -2.725,6.3000002 0,1.5 0.85,2.475 2.175,2.475 0.7,0 1.425,-0.25 2.55,-0.85 1.25,-0.7 2.075,-1.325 2.525,-1.9 1,-1.375 1.8,-3.825 1.8,-5.5500002 0,-1.35 -0.925,-2.3 -2.25,-2.3 z m -1.3,1.175 c 1,0 1.625,0.95 1.625,2.4750002 0,1.075 -0.35,2.35 -0.95,3.575 -0.725,1.425 -1.625,2.2 -2.575,2.2 -1.025,0 -1.675,-0.925 -1.675,-2.35 0,-2.9 1.825,-5.9000002 3.575,-5.9000002 z m 3.399992,7.0250002 c -0.025,0.225 -0.05,0.425 -0.05,0.575 0,1.1 0.75,1.825 1.85,1.825 0.8,0 1.85,-0.3 2.65,-0.775 1.5,-0.85 2.375,-2.125 2.375,-3.375 0,-0.925 -0.15,-1.125 -1.575,-2 -0.85,-0.55 -1.2,-1.025 -1.2,-1.6750002 0,-0.875 0.725,-1.6 1.575,-1.6 0.575,0 1.025,0.275 1.55,0.975 0.85,-0.825 0.85,-0.825 1.175,-1.3 -0.5,-0.6 -0.975,-0.85 -1.675,-0.85 -1.825,0 -4.175,2.15 -4.175,3.8250002 0,0.775 0.4,1.375 1.35,2.05 1.25,0.875 1.425,1.1 1.425,1.725 0,0.9 -1.15,1.95 -2.125,1.95 -0.55,0 -0.975,-0.3 -1.225,-0.85 -0.175,-0.375 -0.225,-0.725 -0.25,-1.625 -0.275,0.225 -0.475,0.35 -0.575,0.425 -0.2,0.125 -0.425,0.25 -0.65,0.4 -0.025,0 -0.25,0.175 -0.45,0.3 z m 10.775,-14.05000016 -0.025,-0.25 -2.025,1.87499996 c -0.6,0.5 -0.975,0.825 -1.825,1.5 -0.2,-1.025 -0.2,-1.125 -0.5,-3.37499996 -0.15,0.1 -0.275,0.175 -0.325,0.2 -0.05,0.05 -0.175,0.1 -0.3,0.17499996 l -0.25,0.15 c 0.125,1.525 0.15,1.9 0.175,2.2 l 0.1,1.45 0.05,0.675 c 0.125,0.05 0.25,0.075 0.325,0.075 0.05,0 0.125,-0.025 0.35,-0.075 1.125,-0.95 1.875,-1.65 4.325,-4.125 -0.025,-0.125 -0.05,-0.2 -0.05,-0.25 z"
       id="text2"
       aria-label="Luboš" /></g></svg>
