<?xml version="1.0" encoding="UTF-8" standalone="no"?>
<!-- Created with Inkscape (http://www.inkscape.org/) -->

<svg
   width="110mm"
   height="40mm"
   viewBox="0 0 110 40"
   version="1.1"
   id="svg1"
   inkscape:version="1.3.2 (091e20ef0f, 2023-11-25, custom)"
   sodipodi:docname="lubos.svg"
   xml:space="preserve"
   xmlns:inkscape="http://www.inkscape.org/namespaces/inkscape"
   xmlns:sodipodi="http://sodipodi.sourceforge.net/DTD/sodipodi-0.dtd"
   xmlns="http://www.w3.org/2000/svg"
   xmlns:svg="http://www.w3.org/2000/svg"><sodipodi:namedview
     id="namedview1"
     pagecolor="#ffffff"
     bordercolor="#000000"
     borderopacity="0.25"
     inkscape:showpageshadow="2"
     inkscape:pageopacity="0.0"
     inkscape:pagecheckerboard="0"
     inkscape:deskcolor="#d1d1d1"
     inkscape:document-units="mm"
     inkscape:zoom="1.6133856"
     inkscape:cx="213.21624"
     inkscape:cy="76.237201"
     inkscape:window-width="1920"
     inkscape:window-height="1050"
     inkscape:window-x="0"
     inkscape:window-y="30"
     inkscape:window-maximized="1"
     inkscape:current-layer="layer1" /><defs
     id="defs1" /><g
     inkscape:label="Layer 1"
     inkscape:groupmode="layer"
     id="layer1"><path
       style="font-size:25px;line-height:0;font-family:Z003;-inkscape-font-specification:Z003;letter-spacing:0px;fill:#ff0000;stroke:#000000;stroke-width:0.265"
       d="m 0.1325,17.0575 c 1.325,0.025 1.325,0.025 1.475,0.025 1.3,0 3.55,-0.05 4.3,-0.1 l 1.85,-0.95 c -0.55,-0.025 -1.075,-0.025 -1.075,-0.025 l -1.45,-0.025 -0.775,-0.025 c 2.825,-2.825 2.975,-3.05 3.775,-6.2499995 0.35,0 0.475,0.15 0.625,0.8499995 1.075,4.5 1.775,6.525 2.8,8.05 1.075,1.6 2.55,2.375 4.525,2.375 1.4,0 2.25,-0.3 3.65,-1.325 l -1.225,-1.525 c -0.8,1.475 -1.5,2.05 -2.475,2.05 -1.2,0 -2.275,-1.225 -3.325,-3.725 -0.65,-1.575 -1.325,-3.55 -2.45,-7.1249995 1.425,-0.45 2,-0.725 2.775,-1.25 1.175,-0.775 1.85,-1.925 1.85,-3.1 0,-1.575 -1.225,-2.425 -3.525,-2.425 -0.3,0 -0.925,0.025 -1.45,0.05 l 0.2,-0.8 -2.275,1.075 c -4.1,0.675 -6.275,2.6 -6.275,5.525 0,0.65 0.075,1.075 0.35,1.9999995 l 2.1,-1.0749995 c -0.225,-0.85 -0.275,-1.25 -0.275,-1.85 0,-1.2 0.375,-2.15 1.15,-2.875 0.7,-0.625 1.4,-0.9 3,-1.1 l -0.375,1.5 c -0.525,2.075 -1.025,4 -1.525,6.0999995 -1.05,4.225 -1.725,4.875 -4.975,4.85 z m 9.7,-13.7499995 h 0.8 c 1.525,0 2.175,0.575 2.175,1.95 0,1.275 -0.675,2.45 -1.725,3.1 -0.75,0.45 -1.35,0.625 -2.7,0.775 z m 12.399993,3.5 c -1,0 -2.6,0.725 -4.075,1.825 -1.6,1.2 -2.725,3.7999995 -2.725,6.2999995 0,1.5 0.85,2.475 2.175,2.475 0.7,0 1.425,-0.25 2.55,-0.85 1.25,-0.7 2.075,-1.325 2.525,-1.9 1,-1.375 1.8,-3.825 1.8,-5.5499995 0,-1.35 -0.925,-2.3 -2.25,-2.3 z m -1.3,1.175 c 1,0 1.625,0.95 1.625,2.4749995 0,1.075 -0.35,2.35 -0.95,3.575 -0.725,1.425 -1.625,2.2 -2.575,2.2 -1.025,0 -1.675,-0.925 -1.675,-2.35 0,-2.9 1.825,-5.8999995 3.575,-5.8999995 z M 24.057485,16.1575 c 0,0.15 0.025,0.275 0.075,0.475 0.45,-0.3 0.65,-0.4 1.2,-0.725 0.35,0.1 0.675,0.225 0.8,0.25 0.15,0.05 0.9,0.325 1.675,0.6 1.35,0.475 2.075,0.65 2.7,0.65 0.875,0 1.5,-0.35 2.7,-1.525 1.025,-1 1.4,-1.575 1.4,-2.2 0,-0.325 -0.075,-0.575 -0.35,-1.125 -0.225,0.15 -0.45,0.3 -0.7,0.45 -0.325,0.2 -0.375,0.225 -0.775,0.525 0.225,0.5 0.275,0.725 0.275,1.025 0,0.8 -0.625,1.425 -1.45,1.425 -0.875,0 -1.55,-0.225 -4.5,-1.525 0.575,-0.575 1.625,-1.575 3.15,-2.975 l 1.775,-1.7499995 c 0.6,-0.6 1.225,-1.2 1.825,-1.775 l 0.9,-0.925 c 0.025,-0.325 0.025,-0.475 0.025,-0.5 v -0.1 c -1.025,0.7 -1.2,0.75 -2.5,0.75 -0.7,0 -2.75,-0.05 -3.425,-0.075 h -0.2 c -0.7,0 -0.75,0.075 -1.95,3.2499995 l 0.45,0.475 c 0.1,-0.25 0.25,-0.55 0.425,-0.8999995 0.2,-0.45 0.375,-0.725 0.525,-0.85 0.4,-0.35 0.625,-0.4 2.125,-0.4 l 0.5,-0.025 0.625,-0.025 c 0.375,0 0.45,-0.025 0.925,-0.1 -2.25,2.1749995 -5.025,4.6749995 -8.225,7.4749995 z m 22.150013,-2.35 c -1.825,1.25 -2.25,1.5 -2.5,1.5 -0.175,0 -0.3,-0.2 -0.3,-0.5 0,-0.675 0.575,-3.3 1.5,-6.7249995 0.275,-0.4 0.325,-0.45 0.725,-0.9 -1.2,-0.275 -2.05,-0.375 -3.15,-0.375 -1.025,0 -1.525,0.1 -2.15,0.5 -0.9,0.525 -1.95,1.3 -2.275,1.65 -0.95,1.0499995 -1.975,4.4249995 -1.975,6.4499995 0,1.2 0.4,2 1.025,2 0.55,0 1.375,-0.5 4.5,-2.75 -0.275,1.275 -0.375,1.9 -0.375,2.225 0,0.35 0.15,0.525 0.4,0.525 0.325,0 0.525,-0.1 2.3,-1.275 0.85,-0.575 1.325,-0.9 2.25,-1.575 z m -4.4,-0.175 c -2.175,1.575 -2.65,1.85 -3.15,1.85 -0.425,0 -0.65,-0.45 -0.65,-1.25 0,-1.275 0.375,-2.925 1.025,-4.3749995 0.6,-1.375 1.15,-1.9 2,-1.9 0.45,0 1.3,0.125 2.125,0.325 -0.5,1.7999995 -0.675,2.4749995 -0.7,2.5999995 -0.15,0.625 -0.275,1.25 -0.425,1.9 -0.025,0.125 -0.1,0.425 -0.225,0.85 z m 0.15,-8.0499995 c 1.575,-1.825 1.975,-2.275 3.975,-4.325 l -1.1,-0.55000004 -0.525,0.70000004 c -1.7,2.375 -1.8,2.5 -2.95,4.025 z m 10.125,8.2749995 c -0.525,0.3 -0.525,0.3 -1.6,0.975 -0.725,0.45 -1.15,0.65 -1.425,0.65 -0.25,0 -0.45,-0.3 -0.45,-0.65 v -0.225 -0.225 c 0,-0.45 1.125,-5.2999995 2.05,-8.8249995 0.975,-3.7 1.2,-4.125 2.3,-4.125 0.375,0 0.625,0.025 1.225,0.175 l 1.075,-1.32500004 c -0.525,-0.125 -0.775,-0.15 -1.125,-0.15 -1,0 -1.775,0.375 -3,1.47500004 -1.1,0.975 -1.375,1.375 -1.7,2.275 -0.2,0.6 -0.75,2.625 -1,3.725 l -1.8,7.8249995 c -0.025,0.15 -0.05,0.3 -0.05,0.45 0,0.775 0.425,1.525 0.825,1.525 h 0.15 0.075 c 0.15,0.075 0.95,-0.475 4.45,-3 z M 57.232495,1.6825005 c -0.7,0.55 -1.275,1 -1.725,1.3 0.175,0.525 0.4,0.95 0.95,1.75 0.7,-0.625 0.775,-0.7 1.625,-1.35 -0.075,-0.15 -0.125,-0.25 -0.325,-0.575 -0.15,-0.3 -0.175,-0.3 -0.375,-0.8 z m 0.95,12.4999995 -0.425,0.225 c -1.725,0.95 -2.025,1.075 -2.325,1.075 -0.275,0 -0.45,-0.275 -0.45,-0.7 0,-0.425 0,-0.425 0.825,-3.725 0.925,-3.7999995 0.925,-3.7999995 0.925,-3.9999995 0,-0.15 -0.125,-0.25 -0.3,-0.25 -0.425,0 -1.9,0.825 -3.95,2.2 l -0.05,0.7 c 1.525,-0.825 1.6,-0.85 1.825,-0.85 0.2,0 0.3,0.15 0.3,0.425 0,0.35 -0.075,0.7 -0.45,2.1249995 -1.175,4.35 -1.175,4.35 -1.175,5 0,0.6 0.225,1 0.6,1 0.425,0 1.1,-0.325 2.425,-1.175 0.475,-0.3 0.95,-0.6 1.425,-0.925 0.225,-0.125 0.4,-0.25 0.7,-0.425 z m 7.724996,-0.525 c -2,1.7 -3.075,2.325 -4.025,2.325 -0.65,0 -1.15,-0.425 -1.325,-1.075 -0.1,-0.4 -0.125,-0.675 -0.125,-1.4 1.15,-0.725 1.85,-1.225 3.325,-2.325 1.375,-1.025 1.875,-1.8499995 1.875,-2.9749995 0,-0.875 -0.525,-1.4 -1.425,-1.4 -0.55,0 -0.925,0.125 -1.525,0.45 -0.95,0.55 -1.8,1.225 -2.3,1.825 -0.95,1.1499995 -1.8,3.8999995 -1.8,5.9249995 0,1.475 0.775,2.4 2.05,2.4 1.475,0 3.375,-1.1 5.25,-3.025 z m -5.4,-1.05 c 0.425,-2.6999995 1.55,-4.7499995 2.65,-4.7499995 0.4,0 0.675,0.4 0.675,1.025 0,1.2499995 -0.725,2.0499995 -3.325,3.7249995 z"
       id="text2"
       aria-label="Rozálie" /></g></svg>
