<?xml version="1.0" encoding="UTF-8" standalone="no"?>
<!-- Created with Inkscape (http://www.inkscape.org/) -->

<svg
   width="50mm"
   height="30mm"
   viewBox="0 0 50 30"
   version="1.1"
   id="svg1"
   inkscape:version="1.3.2 (091e20ef0f, 2023-11-25, custom)"
   sodipodi:docname="nika.svg"
   xmlns:inkscape="http://www.inkscape.org/namespaces/inkscape"
   xmlns:sodipodi="http://sodipodi.sourceforge.net/DTD/sodipodi-0.dtd"
   xmlns="http://www.w3.org/2000/svg"
   xmlns:svg="http://www.w3.org/2000/svg">
  <sodipodi:namedview
     id="namedview1"
     pagecolor="#ffffff"
     bordercolor="#000000"
     borderopacity="0.25"
     inkscape:showpageshadow="2"
     inkscape:pageopacity="0.0"
     inkscape:pagecheckerboard="0"
     inkscape:deskcolor="#d1d1d1"
     inkscape:document-units="mm"
     inkscape:zoom="3.6721822"
     inkscape:cx="128.53393"
     inkscape:cy="74.342716"
     inkscape:window-width="1920"
     inkscape:window-height="1050"
     inkscape:window-x="0"
     inkscape:window-y="30"
     inkscape:window-maximized="1"
     inkscape:current-layer="layer1" />
  <defs
     id="defs1" />
  <g
     inkscape:label="Layer 1"
     inkscape:groupmode="layer"
     id="layer1">
    <path
       style="font-size:25px;font-family:Z003;-inkscape-font-specification:Z003;fill:#ff0000;stroke:#000000;stroke-width:0.265"
       d="m 0.13249999,17.057501 c 0.65,0.05 0.97500001,0.075 1.37500001,0.075 1.075,0 1.75,-0.15 2.4,-0.55 1.225,-0.75 2.475,-2.5 3.275,-4.625 0.4,-1.05 0.55,-1.6 1.625,-5.9500002 0.625,2.7 0.625,2.725 0.9,3.875 0.7,2.8750002 1.4,5.0250002 2.2,6.6250002 1.525,3.1 3.725,4.625 6.675,4.625 1.275,0 2.175,-0.225 3.3,-0.875 l -0.6,-2.225 c -0.75,1.75 -1.45,2.425 -2.55,2.425 -1.575,0 -3.025,-1.225 -4.3,-3.65 0.425,-2.15 0.625,-3.125 1.275,-5.75 1.075,-4.3500002 1.625,-6.1500002 2.425,-7.8000002 0.525,-1.075 1.125,-1.45 2.275,-1.45 0.2,0 0.35,0 0.675,0.05 l 0.925,-1.67499996 c -0.3,-0.025 -0.575,-0.05 -0.775,-0.05 -1.05,0 -2.175,0.725 -3.475,2.24999996 -1.2,1.4 -1.65,2.65 -2.875,8.0750002 -0.25,1.175 -0.525,2.35 -0.8,3.55 -0.025,0.125 -0.15,0.65 -0.375,1.425 -1.075,-2.075 -1.675,-3.9 -3.725,-11.6500002 l -0.45,-1.625 -0.85,0.775 c -0.6,-0.05 -0.9,-0.075 -1.375,-0.075 -1.525,0 -2.4,0.275 -3.325,0.975 -1.575,1.25 -2.675,3.05 -2.675,4.425 0,0.65 0.175,1.275 0.625,2.2000002 l 1.725,-1.1750002 c -0.625,-1.35 -0.8,-1.875 -0.8,-2.525 0,-0.75 0.425,-1.425 1.125,-1.8 0.6,-0.325 1.175,-0.425 2.35,-0.425 0.625,0 1.025,0 1.9,0.05 -1.15,5.025 -2.125,8.1750002 -2.95,9.6500002 -0.525,0.925 -1.075,1.2 -2.4,1.2 -0.525,0 -0.85,-0.025 -1.55,-0.1 z M 23.457519,1.6575008 c -0.7,0.55 -1.275,1 -1.725,1.3 0.175,0.525 0.4,0.95 0.95,1.75 0.7,-0.625 0.775,-0.7 1.625,-1.35 -0.075,-0.15 -0.125,-0.25 -0.325,-0.575 -0.15,-0.3 -0.175,-0.3 -0.375,-0.8 z m 0.95,12.5000002 -0.425,0.225 c -1.725,0.95 -2.025,1.075 -2.325,1.075 -0.275,0 -0.45,-0.275 -0.45,-0.7 0,-0.425 0,-0.425 0.825,-3.725 0.925,-3.8000002 0.925,-3.8000002 0.925,-4.0000002 0,-0.15 -0.125,-0.25 -0.3,-0.25 -0.425,0 -1.9,0.825 -3.95,2.2 l -0.05,0.7 c 1.525,-0.825 1.6,-0.85 1.825,-0.85 0.2,0 0.3,0.15 0.3,0.425 0,0.35 -0.075,0.7 -0.45,2.1250002 -1.175,4.35 -1.175,4.35 -1.175,5 0,0.6 0.225,1 0.6,1 0.425,0 1.1,-0.325 2.425,-1.175 0.475,-0.3 0.95,-0.6 1.425,-0.925 0.225,-0.125 0.4,-0.25 0.7,-0.425 z m 0.399994,3.175 c 0.275,-0.1 0.525,-0.2 0.6,-0.225 0.15,-0.05 0.4,-0.125 0.675,-0.225 0.075,-0.025 0.3,-0.1 0.55,-0.175 l 0.975,-4.45 0.575,-0.35 c 0.5,1.15 0.6,1.375 1.4,3.25 1.075,2.55 1.725,3.575 2.75,4.375 1.075,0.825 2.625,1.35 3.95,1.35 1.15,0 1.95,-0.25 2.725,-0.875 l -0.5,-1.8 c -0.8,1.35 -1.525,1.875 -2.575,1.875 -0.825,0 -1.5,-0.4 -2.275,-1.325 -0.675,-0.8 -0.675,-0.8 -3.35,-6.475 l -0.725,-1.55 1.675,-1.5250002 c 1,-0.875 1.275,-1.05 1.75,-1.05 0.425,0 0.725,0.2 1.125,0.725 l 1.275,-1.9 c -0.5,-0.375 -0.85,-0.5 -1.4,-0.5 -0.675,0 -1.1,0.225 -1.85,0.925 -0.775,0.75 -0.8,0.775 -1.075,1.025 l -3.225,2.8750002 0.95,-3.8250002 c 0.8,-3.3 1.075,-4.1 1.5,-4.8 0.45,-0.725 1.1,-1.075 1.95,-1.075 0.225,0 0.425,0.025 0.875,0.1 l 1,-1.44999996 c -0.325,-0.05 -0.475,-0.075 -0.725,-0.075 -0.9,0 -1.475,0.2 -2.275,0.775 -1.6,1.12499996 -2.725,2.22499996 -3.05,2.94999996 -0.25,0.55 -0.725,2.2 -1.05,3.65 z m 20.275004,-3.55 c -1.825,1.25 -2.25,1.5 -2.5,1.5 -0.175,0 -0.3,-0.2 -0.3,-0.5 0,-0.675 0.575,-3.3 1.5,-6.7250002 0.275,-0.4 0.325,-0.45 0.725,-0.9 -1.2,-0.275 -2.05,-0.375 -3.15,-0.375 -1.025,0 -1.525,0.1 -2.15,0.5 -0.9,0.525 -1.95,1.3 -2.275,1.65 -0.95,1.05 -1.975,4.4250002 -1.975,6.4500002 0,1.2 0.4,2 1.025,2 0.55,0 1.375,-0.5 4.5,-2.75 -0.275,1.275 -0.375,1.9 -0.375,2.225 0,0.35 0.15,0.525 0.4,0.525 0.325,0 0.525,-0.1 2.3,-1.275 0.85,-0.575 1.325,-0.9 2.25,-1.575 z m -4.4,-0.175 c -0.875,0.65 -1.325,0.975 -1.35,1 -0.825,0.525 -1.475,0.85 -1.8,0.85 -0.425,0 -0.65,-0.45 -0.65,-1.25 0,-1.275 0.375,-2.925 1.025,-4.3750002 0.6,-1.375 1.15,-1.9 2,-1.9 0.45,0 1.3,0.125 2.125,0.325 -0.5,1.8000002 -0.675,2.4750002 -0.7,2.6000002 -0.15,0.625 -0.275,1.25 -0.425,1.9 -0.025,0.125 -0.1,0.425 -0.225,0.85 z"
       id="text1"
       aria-label="Nika" />
  </g>
</svg>
