<?xml version="1.0" encoding="UTF-8" standalone="no"?>
<!-- Created with Inkscape (http://www.inkscape.org/) -->

<svg
   width="110mm"
   height="40mm"
   viewBox="0 0 110 40"
   version="1.1"
   id="svg1"
   inkscape:version="1.3.2 (091e20ef0f, 2023-11-25, custom)"
   sodipodi:docname="ondra.svg"
   xml:space="preserve"
   xmlns:inkscape="http://www.inkscape.org/namespaces/inkscape"
   xmlns:sodipodi="http://sodipodi.sourceforge.net/DTD/sodipodi-0.dtd"
   xmlns="http://www.w3.org/2000/svg"
   xmlns:svg="http://www.w3.org/2000/svg"><sodipodi:namedview
     id="namedview1"
     pagecolor="#ffffff"
     bordercolor="#000000"
     borderopacity="0.25"
     inkscape:showpageshadow="2"
     inkscape:pageopacity="0.0"
     inkscape:pagecheckerboard="0"
     inkscape:deskcolor="#d1d1d1"
     inkscape:document-units="mm"
     inkscape:zoom="1.6133856"
     inkscape:cx="366.31045"
     inkscape:cy="99.170343"
     inkscape:window-width="1920"
     inkscape:window-height="1050"
     inkscape:window-x="0"
     inkscape:window-y="30"
     inkscape:window-maximized="1"
     inkscape:current-layer="layer1" /><defs
     id="defs1" /><g
     inkscape:label="Layer 1"
     inkscape:groupmode="layer"
     id="layer1"><path
       style="font-size:25px;line-height:0;font-family:Z003;-inkscape-font-specification:Z003;letter-spacing:0px;fill:#ff0000;stroke:#000000;stroke-width:0.265"
       d="m 9.7075,2.2825008 c -2.075,0 -4.725,1.05 -6.45,2.525 -2,1.775 -3.12499997,4.525 -3.12499997,7.6750002 0,3.2 1.47499997,4.9 4.24999997,4.9 2.3,0 4.75,-1.075 6.65,-2.875 1.825,-1.75 2.8,-4.325 2.8,-7.3750002 0,-3.15 -1.45,-4.85 -4.125,-4.85 z m -1.425,0.975 c 2.2,0 3.5,1.725 3.5,4.65 0,1.925 -0.5,4.0250002 -1.325,5.4750002 -1.075,1.9 -2.775,3 -4.625,3 -2.3,0 -3.65,-1.8 -3.65,-4.875 0,-4.6500002 2.65,-8.2500002 6.1,-8.2500002 z m 8.35001,13.3250002 1.475,-5.875 0.625,-0.4 c 2.325,-1.4500002 2.6,-1.6000002 2.95,-1.6000002 0.15,0 0.25,0.125 0.25,0.325 0,0.4 -0.175,1.1250002 -0.925,4.1750002 -0.55,2.2 -0.65,2.65 -0.65,3.125 0,0.35 0.1,0.65 0.375,1.125 1.125,-0.5 2.875,-1.6 4.625,-2.9 l 0.175,-0.7 c -2.425,1.4 -2.6,1.475 -2.85,1.475 -0.25,0 -0.4,-0.25 -0.4,-0.675 0,-0.675 0.1,-1.1 1.2,-5.0750002 0.625,-2.225 0.625,-2.225 0.625,-2.375 0,-0.275 -0.175,-0.425 -0.475,-0.425 -0.55,0 -0.625,0.05 -3.325,1.7 -1,0.625 -1.65,1.025 -1.95,1.225 0.25,-0.875 0.6,-2.4 0.6,-2.6 0,-0.2 -0.125,-0.325 -0.325,-0.325 -0.275,0 -1.975,0.875 -3.925,2.025 l -0.15,0.65 c 1.6,-0.725 1.7,-0.75 1.925,-0.75 0.175,0 0.3,0.15 0.3,0.35 0,0.55 -0.45,2.5500002 -1.1,4.8750002 l -0.575,2.025 c -0.05,0.175 -0.175,0.65 -0.35,1.35 z m 19.824977,-2.8 -0.7,0.45 c -0.625,0.425 -1.05,0.725 -1.175,0.8 -0.525,0.325 -1,0.55 -1.125,0.55 -0.2,0 -0.35,-0.275 -0.35,-0.65 0,-0.825 2.075,-9.8750002 2.625,-11.4250002 0.55,-1.5 1.1,-2.075 2,-2.075 0.35,0 0.575,0.05 1.15,0.2 l 0.875,-1.39999996 c -0.375,-0.075 -0.55,-0.1 -0.8,-0.1 -0.6,0 -0.95,0.1 -1.5,0.425 -0.625,0.35 -1.475,0.99999996 -2.175,1.64999996 -1.225,1.175 -1.3,1.35 -1.95,3.925 -0.025,0.1 -0.1,0.45 -0.2,0.8 -0.45,-0.1 -0.8,-0.15 -1.025,-0.15 -0.775,0 -2.925,1.35 -3.925,2.45 -0.85,0.9750002 -1.975,4.5000002 -1.975,6.2250002 0,0.95 0.5,1.925 0.95,1.925 0.475,0 1.625,-0.7 4.2,-2.575 -0.125,0.675 -0.2,1.325 -0.2,1.8 0,0.5 0.175,0.775 0.55,0.775 0.4,0 2.575,-1.325 4.65,-2.825 z m -4.9,0.1 c -2.125,1.5 -2.675,1.825 -3.025,1.825 -0.35,0 -0.525,-0.35 -0.525,-1.1 0,-0.825 0.15,-1.75 0.45,-2.875 0.7,-2.5250002 1.7,-3.7750002 2.975,-3.7750002 0.475,0 0.8,0.175 1.3,0.675 z m 5.725013,3.425 1.925,-0.725 1.875,-7.1250002 c 0.85,-0.65 1.425,-0.875 2.1,-0.875 0.55,0 0.875,0.2 1.325,0.775 l 0.75,-2.375 c -0.45,-0.15 -0.675,-0.2 -0.925,-0.2 -0.475,0 -0.975,0.225 -1.65,0.7 -0.325,0.25 -0.65,0.5 -1,0.725 -0.15,0.125 -0.325,0.25 -0.475,0.35 l 0.3,-1.5 c 0,-0.15 -0.15,-0.275 -0.325,-0.275 -0.325,0 -2.525,1.075 -4.05,1.975 l -0.075,0.675 c 1.45,-0.7 1.475,-0.725 1.8,-0.725 0.325,0 0.475,0.175 0.475,0.525 0,0.35 -0.25,1.5000002 -0.55,2.6000002 z m 17.099988,-3.525 c -1.825,1.25 -2.25,1.5 -2.5,1.5 -0.175,0 -0.3,-0.2 -0.3,-0.5 0,-0.675 0.575,-3.3 1.5,-6.7250002 0.275,-0.4 0.325,-0.45 0.725,-0.9 -1.2,-0.275 -2.05,-0.375 -3.15,-0.375 -1.025,0 -1.525,0.1 -2.15,0.5 -0.9,0.525 -1.95,1.3 -2.275,1.65 -0.95,1.05 -1.975,4.4250002 -1.975,6.4500002 0,1.2 0.4,2 1.025,2 0.55,0 1.375,-0.5 4.5,-2.75 -0.275,1.275 -0.375,1.9 -0.375,2.225 0,0.35 0.15,0.525 0.4,0.525 0.325,0 0.525,-0.1 2.3,-1.275 0.85,-0.575 1.325,-0.9 2.25,-1.575 z m -4.4,-0.175 c -0.875,0.65 -1.325,0.975 -1.35,1 -0.825,0.525 -1.475,0.85 -1.8,0.85 -0.425,0 -0.65,-0.45 -0.65,-1.25 0,-1.275 0.375,-2.925 1.025,-4.3750002 0.6,-1.375 1.15,-1.9 2,-1.9 0.45,0 1.3,0.125 2.125,0.325 -0.5,1.8000002 -0.675,2.4750002 -0.7,2.6000002 -0.15,0.625 -0.275,1.25 -0.425,1.9 -0.025,0.125 -0.1,0.425 -0.225,0.85 z"
       id="text2"
       aria-label="Ondra" /></g></svg>
