<?xml version="1.0" encoding="UTF-8" standalone="no"?>
<!-- Created with Inkscape (http://www.inkscape.org/) -->

<svg
   width="110mm"
   height="40mm"
   viewBox="0 0 110 40"
   version="1.1"
   id="svg1"
   inkscape:version="1.3.2 (091e20ef0f, 2023-11-25, custom)"
   sodipodi:docname="santus.svg"
   xml:space="preserve"
   xmlns:inkscape="http://www.inkscape.org/namespaces/inkscape"
   xmlns:sodipodi="http://sodipodi.sourceforge.net/DTD/sodipodi-0.dtd"
   xmlns="http://www.w3.org/2000/svg"
   xmlns:svg="http://www.w3.org/2000/svg"><sodipodi:namedview
     id="namedview1"
     pagecolor="#ffffff"
     bordercolor="#000000"
     borderopacity="0.25"
     inkscape:showpageshadow="2"
     inkscape:pageopacity="0.0"
     inkscape:pagecheckerboard="0"
     inkscape:deskcolor="#d1d1d1"
     inkscape:document-units="mm"
     inkscape:zoom="1.6133856"
     inkscape:cx="213.21624"
     inkscape:cy="76.237201"
     inkscape:window-width="1920"
     inkscape:window-height="1050"
     inkscape:window-x="0"
     inkscape:window-y="30"
     inkscape:window-maximized="1"
     inkscape:current-layer="layer1" /><defs
     id="defs1" /><g
     inkscape:label="Layer 1"
     inkscape:groupmode="layer"
     id="layer1"><path
       style="font-size:25px;line-height:0;font-family:Z003;-inkscape-font-specification:Z003;letter-spacing:0px;fill:#ff0000;stroke:#000000;stroke-width:0.265"
       d="m 6.5575,7.9574997 c -0.15,-0.85 -0.2,-1.25 -0.2,-1.8 0,-1.95 1.025,-3 2.95,-3 h 0.375 l -1.375,5.5 c -0.475,0.4 -0.55,0.475 -1,0.925 0.375,0.25 0.475,0.375 0.6,0.7250003 -0.2,0.625 -0.2,0.625 -0.575,2.05 -0.725,2.6 -0.775,2.725 -1.25,3.65 -0.675,1.3 -1.8,2 -3.275,2 -0.5,0 -0.9,-0.05 -1.675,-0.25 l -1.00000001,1.675 c 0.475,0.1 0.7,0.125 1.10000001,0.125 1.55,0 2.625,-0.5 4.975,-2.375 2.1,-1.675 2.3,-2 3.05,-5.025 l 2.3,-9.2250003 0.825,-0.725 c -1.775,0 -2.475,0.05 -3.5,0.25 -2.75,0.55 -4.45,2.45 -4.45,4.95 0,0.5 0.05,0.775 0.225,1.425 z m 10.37499,-6.85 c -0.7,0.55 -1.275,1 -1.725,1.3 0.175,0.525 0.4,0.95 0.95,1.75 0.7,-0.625 0.775,-0.7 1.625,-1.35 -0.075,-0.15 -0.125,-0.25 -0.325,-0.575 -0.15,-0.3 -0.175,-0.3 -0.375,-0.8 z m 0.95,12.5000003 -0.425,0.225 c -1.725,0.95 -2.025,1.075 -2.325,1.075 -0.275,0 -0.45,-0.275 -0.45,-0.7 0,-0.425 0,-0.425 0.825,-3.725 0.925,-3.8000003 0.925,-3.8000003 0.925,-4.0000003 0,-0.15 -0.125,-0.25 -0.3,-0.25 -0.425,0 -1.9,0.825 -3.95,2.2 l -0.05,0.7 c 1.525,-0.825 1.6,-0.85 1.825,-0.85 0.2,0 0.3,0.15 0.3,0.425 0,0.35 -0.075,0.7 -0.45,2.1250003 -1.175,4.35 -1.175,4.35 -1.175,5 0,0.6 0.225,1 0.6,1 0.425,0 1.1,-0.325 2.425,-1.175 0.475,-0.3 0.95,-0.6 1.425,-0.925 0.225,-0.125 0.4,-0.25 0.7,-0.425 z m 0.474995,3.15 1.925,-0.725 1.875,-7.1250003 c 0.85,-0.65 1.425,-0.875 2.1,-0.875 0.55,0 0.875,0.2 1.325,0.775 l 0.75,-2.375 c -0.45,-0.15 -0.675,-0.2 -0.925,-0.2 -0.475,0 -0.975,0.225 -1.65,0.7 -0.325,0.25 -0.65,0.5 -1,0.725 -0.15,0.125 -0.325,0.25 -0.475,0.35 l 0.3,-1.5 c 0,-0.15 -0.15,-0.275 -0.325,-0.275 -0.325,0 -2.525,1.075 -4.05,1.975 l -0.075,0.675 c 1.45,-0.7 1.475,-0.725 1.8,-0.725 0.325,0 0.475,0.175 0.475,0.525 0,0.35 -0.25,1.5000003 -0.55,2.6000003 z m 9.35,-16.37500031 -0.025,-0.25 c -0.55,0.5 -1.225,1.12500001 -2.025,1.87500001 -0.575,0.5 -0.975,0.825 -1.825,1.5 -0.2,-1.025 -0.2,-1.125 -0.5,-3.37500001 -0.15,0.1 -0.275,0.175 -0.325,0.2 -0.075,0.05 -0.175,0.1 -0.3,0.175 l -0.25,0.15 c 0.125,1.52500001 0.15,1.90000001 0.175,2.20000001 l 0.1,1.45 0.05,0.675 c 0.125,0.05 0.25,0.075 0.325,0.075 0.05,0 0.125,-0.025 0.35,-0.075 1.15,-0.975 1.8,-1.575 4.325,-4.12500001 -0.025,-0.125 -0.05,-0.2 -0.05,-0.25 z M 31.857443,13.6075 l -0.425,0.225 c -1.725,0.95 -2.025,1.075 -2.325,1.075 -0.275,0 -0.45,-0.275 -0.45,-0.7 0,-0.425 0,-0.425 0.825,-3.725 0.925,-3.8000003 0.925,-3.8000003 0.925,-4.0000003 0,-0.15 -0.125,-0.25 -0.3,-0.25 -0.425,0 -1.9,0.825 -3.95,2.2 l -0.05,0.7 c 1.525,-0.825 1.6,-0.85 1.825,-0.85 0.2,0 0.3,0.15 0.3,0.425 0,0.35 -0.075,0.7 -0.45,2.1250003 -1.175,4.35 -1.175,4.35 -1.175,5 0,0.6 0.225,1 0.6,1 0.425,0 1.075,-0.325 2.375,-1.175 0.475,-0.3 0.95,-0.6 1.425,-0.925 0.25,-0.15 0.5,-0.3 0.675,-0.425 z m -2.8,-8.6000003 c 1.55,-1.825 1.975,-2.275 3.975,-4.32500001 l -1.125,-0.55 -0.5,0.7 c -0.55,0.77500001 -1.05,1.45000001 -1.55,2.15000001 -0.35,0.475 -0.825,1.1 -1.4,1.875 z"
       id="text2"
       aria-label="Jiří" /></g></svg>
